<svg width="32" height="32" viewBox="0 0 32 32" fill="none" xmlns="http://www.w3.org/2000/svg">
<path d="M8.00394 6.83336C7.98014 6.3006 8.06313 5.76845 8.248 5.26823C8.43288 4.76801 8.71592 4.3098 9.08047 3.92057C9.44502 3.53133 9.88373 3.21892 10.3708 3.00171C10.8578 2.78451 11.3834 2.66689 11.9166 2.65578C12.4498 2.64466 12.9798 2.74028 13.4755 2.937C13.9712 3.13372 14.4225 3.42758 14.803 3.80129C15.1834 4.17499 15.4853 4.62101 15.6909 5.11309C15.8964 5.60518 16.0015 6.1334 15.9999 6.66669V24M8.00394 6.83336C7.2202 7.03488 6.49261 7.41209 5.87624 7.93644C5.25988 8.46079 4.77092 9.11852 4.44639 9.85982C4.12187 10.6011 3.97028 11.4066 4.00312 12.2151C4.03596 13.0237 4.25236 13.8142 4.63594 14.5267M8.00394 6.83336C8.0303 7.47834 8.21237 8.10735 8.5346 8.66669M4.63594 14.5267C3.96151 15.0746 3.43117 15.779 3.09106 16.5786C2.75094 17.3782 2.61135 18.2488 2.68442 19.1147C2.7575 19.9805 3.04103 20.8154 3.51034 21.5467C3.97966 22.278 4.62055 22.8836 5.37727 23.3107M4.63594 14.5267C4.87986 14.328 5.14087 14.1527 5.41594 14M5.37727 23.3107C5.28382 24.0337 5.33959 24.7681 5.54112 25.4687C5.74265 26.1693 6.08566 26.8211 6.54898 27.384C7.0123 27.9468 7.58608 28.4087 8.2349 28.741C8.88371 29.0734 9.59377 29.2693 10.3212 29.3165C11.0487 29.3637 11.7781 29.2613 12.4645 29.0155C13.1508 28.7698 13.7794 28.3859 14.3116 27.8877C14.8438 27.3895 15.2682 26.7874 15.5586 26.1188C15.8489 25.4501 15.9992 24.729 15.9999 24M5.37727 23.3107C6.17763 23.7621 7.08104 24.0005 7.99994 24M15.9999 24H23.9999C24.7072 24 25.3855 24.281 25.8856 24.7811C26.3856 25.2812 26.6666 25.9594 26.6666 26.6667V28M11.9999 17.3334C13.1193 16.9396 14.0968 16.2227 14.8088 15.2734C15.5208 14.324 15.9353 13.1849 15.9999 12M15.9999 17.3334H21.3333M15.9999 10.6667H26.6666M21.3333 10.6667V6.66669C21.3333 5.95945 21.6142 5.28117 22.1143 4.78107C22.6144 4.28098 23.2927 4.00003 23.9999 4.00003M21.9999 17.3334C21.9999 17.7016 21.7015 18 21.3333 18C20.9651 18 20.6666 17.7016 20.6666 17.3334C20.6666 16.9652 20.9651 16.6667 21.3333 16.6667C21.7015 16.6667 21.9999 16.9652 21.9999 17.3334ZM24.6666 4.00003C24.6666 4.36822 24.3681 4.66669 23.9999 4.66669C23.6317 4.66669 23.3333 4.36822 23.3333 4.00003C23.3333 3.63184 23.6317 3.33336 23.9999 3.33336C24.3681 3.33336 24.6666 3.63184 24.6666 4.00003ZM27.3333 28C27.3333 28.3682 27.0348 28.6667 26.6666 28.6667C26.2984 28.6667 25.9999 28.3682 25.9999 28C25.9999 27.6318 26.2984 27.3334 26.6666 27.3334C27.0348 27.3334 27.3333 27.6318 27.3333 28ZM27.3333 10.6667C27.3333 11.0349 27.0348 11.3334 26.6666 11.3334C26.2984 11.3334 25.9999 11.0349 25.9999 10.6667C25.9999 10.2985 26.2984 10 26.6666 10C27.0348 10 27.3333 10.2985 27.3333 10.6667Z" stroke="white" stroke-width="2" stroke-linecap="round" stroke-linejoin="round"/>
</svg>
