<svg width="20" height="20" viewBox="0 0 20 20" fill="none" xmlns="http://www.w3.org/2000/svg">
<path d="M2.80499 0.995429C2.73912 0.921185 2.65918 0.860752 2.56979 0.817632C2.4804 0.774513 2.38333 0.749564 2.28423 0.744232C2.18512 0.7389 2.08595 0.753292 1.99245 0.786572C1.89894 0.819853 1.81298 0.87136 1.73953 0.938109C1.66608 1.00486 1.60661 1.08552 1.56456 1.17542C1.52252 1.26533 1.49874 1.36268 1.49459 1.46184C1.49045 1.561 1.50603 1.66 1.54043 1.7531C1.57483 1.84619 1.62736 1.93154 1.69499 2.00418L2.65592 3.06168C1.25692 4.54619 0.358451 6.43188 0.0868636 8.45357C-0.184723 10.4753 0.18424 12.5312 1.14186 14.3323L0.0777993 17.5245C-0.0103401 17.7888 -0.0231312 18.0724 0.0408598 18.3436C0.104851 18.6147 0.243095 18.8627 0.440097 19.0597C0.6371 19.2567 0.885076 19.3949 1.15623 19.4589C1.42739 19.5229 1.711 19.5101 1.9753 19.422L5.16749 18.3579C6.82881 19.2417 8.71038 19.6258 10.5852 19.4639C12.46 19.3021 14.2478 18.6012 15.7331 17.4457L16.695 18.5042C16.7609 18.5784 16.8408 18.6389 16.9302 18.682C17.0196 18.7251 17.1166 18.75 17.2157 18.7554C17.3148 18.7607 17.414 18.7463 17.5075 18.713C17.601 18.6798 17.687 18.6282 17.7604 18.5615C17.8339 18.4947 17.8934 18.4141 17.9354 18.3242C17.9775 18.2343 18.0012 18.1369 18.0054 18.0378C18.0095 17.9386 17.9939 17.8396 17.9595 17.7465C17.9251 17.6534 17.8726 17.5681 17.805 17.4954L2.80499 0.995429ZM9.74999 17.9998C8.29965 18.0008 6.87477 17.6189 5.61936 16.8926C5.52738 16.8395 5.42515 16.8065 5.31945 16.7958C5.21375 16.7851 5.10699 16.797 5.00624 16.8307L1.49999 17.9998L2.66905 14.4936C2.70275 14.3928 2.71466 14.286 2.70399 14.1803C2.69332 14.0746 2.66032 13.9724 2.60717 13.8804C1.72841 12.3603 1.35757 10.5994 1.5486 8.85394C1.73964 7.10849 2.48258 5.46951 3.66936 4.17543L14.7187 16.3339C13.2883 17.4159 11.5435 18.0008 9.74999 17.9998ZM19.5 9.7498C19.5 11.3611 19.1013 12.9473 18.3394 14.367C18.2442 14.5405 18.0844 14.6695 17.8946 14.7257C17.7049 14.7819 17.5006 14.7608 17.3263 14.667C17.1521 14.5733 17.0219 14.4144 16.9642 14.2251C16.9065 14.0358 16.926 13.8314 17.0184 13.6564C17.8276 12.1533 18.1505 10.4362 17.9428 8.74181C17.735 7.04745 17.0068 5.45925 15.8585 4.19615C14.7102 2.93306 13.1983 2.05727 11.5314 1.68953C9.8644 1.32179 8.12439 1.4802 6.55124 2.14293C6.36786 2.22013 6.16133 2.22133 5.97708 2.14625C5.79282 2.07118 5.64594 1.92599 5.56874 1.74262C5.49153 1.55924 5.49034 1.35271 5.56541 1.16846C5.64048 0.984204 5.78568 0.837319 5.96905 0.760116C7.45147 0.137963 9.06466 -0.108188 10.6652 0.0435553C12.2657 0.195299 13.8039 0.740233 15.1429 1.62989C16.482 2.51955 17.5805 3.72636 18.3406 5.14298C19.1008 6.5596 19.499 8.14212 19.5 9.7498Z" fill="black"/>
</svg>
