<svg width="26" height="26" viewBox="0 0 26 26" fill="none" xmlns="http://www.w3.org/2000/svg">
<path d="M6.33333 1V25M2.33333 1H10.3333C11.0697 1 11.6667 1.59695 11.6667 2.33333V23.6667C11.6667 24.403 11.0697 25 10.3333 25H2.33333C1.59695 25 1 24.403 1 23.6667V2.33333C1 1.59695 1.59695 1 2.33333 1ZM24.2 22.2C24.4667 22.8667 24.0667 23.6667 23.4 23.9333L20.8667 24.8667C20.2 25.1333 19.4 24.7333 19.1333 24.0667L11.8 3.8C11.5333 3.13333 11.9333 2.33333 12.6 2.06667L15.1333 1.13333C15.8 0.866667 16.6 1.26667 16.8667 1.93333L24.2 22.2Z" stroke="white" stroke-width="2" stroke-linecap="round" stroke-linejoin="round"/>
</svg>
